<svg aria-hidden="true" style="position: absolute; width: 0; height: 0; overflow: hidden;" version="1.1" xmlns="http://www.w3.org/2000/svg" xmlns:xlink="http://www.w3.org/1999/xlink">
<defs>
<symbol id="icon-line" viewBox="0 0 1 32">
<path fill="#fff" style="fill: var(--color1, #fff)" d="M0 0.4h0.8v31.2h-0.8v-31.2z"></path>
</symbol>
<symbol id="icon-checbox-container" viewBox="0 0 32 32">
<path fill="#9b6c43" style="fill: var(--color2, #9b6c43)" d="M5.333 16c0-5.028 0-7.542 1.562-9.105s4.076-1.562 9.105-1.562c5.028 0 7.543 0 9.105 1.562s1.562 4.076 1.562 9.105c0 5.028 0 7.543-1.562 9.105s-4.076 1.562-9.105 1.562c-5.028 0-7.542 0-9.105-1.562s-1.562-4.076-1.562-9.105z"></path>
<path fill="none" stroke="#fff" style="stroke: var(--color1, #fff)" stroke-linejoin="round" stroke-linecap="round" stroke-miterlimit="4" stroke-width="2" d="M10 15.294l4.444 4.706 7.556-8"></path>
</symbol>
<symbol id="icon-hecbox-container-empty" viewBox="0 0 32 32">
<path fill="none" stroke="#595d62" style="stroke: var(--color3, #595d62)" stroke-linejoin="miter" stroke-linecap="butt" stroke-miterlimit="4" stroke-width="2" d="M16 6.333c2.542 0 4.349 0.002 5.719 0.186 1.341 0.18 2.114 0.519 2.678 1.083s0.903 1.337 1.083 2.678c0.184 1.37 0.186 3.176 0.186 5.719s-0.002 4.349-0.186 5.719c-0.18 1.341-0.519 2.114-1.083 2.678s-1.337 0.903-2.678 1.083c-1.37 0.184-3.176 0.186-5.719 0.186s-4.349-0.002-5.719-0.186c-1.341-0.18-2.114-0.519-2.678-1.083s-0.903-1.337-1.083-2.678c-0.184-1.37-0.186-3.176-0.186-5.719s0.002-4.349 0.186-5.719c0.18-1.341 0.519-2.114 1.083-2.678s1.337-0.903 2.678-1.083c1.37-0.184 3.176-0.186 5.719-0.186z"></path>
</symbol>
<symbol id="icon-down-16px" viewBox="0 0 32 32">
<path stroke-linejoin="round" stroke-linecap="round" stroke-miterlimit="4" stroke-width="2" d="M22 13l-6 6-6-6"></path>
</symbol>
<symbol id="icon-down-24px" viewBox="0 0 32 32">
<path stroke-linejoin="round" stroke-linecap="round" stroke-miterlimit="4" stroke-width="1.3333" d="M22 13l-6 6-6-6"></path>
</symbol>
<symbol id="icon-down-32px" viewBox="0 0 32 32">
<path stroke-linejoin="round" stroke-linecap="round" stroke-miterlimit="4" stroke-width="1" d="M22 13l-6 6-6-6"></path>
</symbol>
<symbol id="icon-close-16px" viewBox="0 0 32 32">
<path stroke-linejoin="round" stroke-linecap="round" stroke-miterlimit="4" stroke-width="2" d="M7 7l9 9M16 16l-9 9M16 16l9 9M16 16l9-9"></path>
</symbol>
<symbol id="icon-close-24px" viewBox="0 0 32 32">
<path stroke-linejoin="round" stroke-linecap="round" stroke-miterlimit="4" stroke-width="1.3333" d="M7 7l9 9M16 16l-9 9M16 16l9 9M16 16l9-9"></path>
</symbol>
<symbol id="icon-close-32px" viewBox="0 0 32 32">
<path stroke-linejoin="round" stroke-linecap="round" stroke-miterlimit="4" stroke-width="1" d="M7 7l9 9M16 16l-9 9M16 16l9 9M16 16l9-9"></path>
</symbol>
<symbol id="icon-close" viewBox="0 0 32 32">
<path fill="none" stroke="#fff" style="stroke: var(--color1, #fff)" stroke-linejoin="miter" stroke-linecap="butt" stroke-miterlimit="4" stroke-width="1.3333" d="M25.5 16c0 5.247-4.253 9.5-9.5 9.5s-9.5-4.253-9.5-9.5c0-5.247 4.253-9.5 9.5-9.5s9.5 4.253 9.5 9.5z"></path>
<path fill="none" stroke="#fff" style="stroke: var(--color1, #fff)" stroke-linejoin="miter" stroke-linecap="round" stroke-miterlimit="4" stroke-width="1.3333" d="M19.699 12.346l-3.699 3.699M16 16.046l-3.699 3.699M16 16.046l3.699 3.699M16 16.046l-3.699-3.699"></path>
</symbol>
<symbol id="icon-eye-16px" viewBox="0 0 32 32">
<path stroke-linejoin="miter" stroke-linecap="round" stroke-miterlimit="4" stroke-width="2" d="M15.654 11.909c-4.779 0-8.654 4.621-8.654 5.795s3.874 5.795 8.654 5.795c4.779 0 8.654-4.621 8.654-5.795s-3.874-5.795-8.654-5.795zM15.654 11.909c-2.103 0-3.808 1.679-3.808 3.75s1.705 3.75 3.808 3.75c2.103 0 3.808-1.679 3.808-3.75s-1.705-3.75-3.808-3.75zM25 11.909c-2.636-2.166-5.713-3.409-9-3.409s-6.364 1.243-9 3.409"></path>
</symbol>
<symbol id="icon-eye-24px" viewBox="0 0 32 32">
<path stroke-linejoin="miter" stroke-linecap="round" stroke-miterlimit="4" stroke-width="1.3333" d="M15.654 11.909c-4.779 0-8.654 4.621-8.654 5.795s3.874 5.795 8.654 5.795c4.779 0 8.654-4.621 8.654-5.795s-3.875-5.795-8.654-5.795zM15.654 11.909c-2.103 0-3.808 1.679-3.808 3.75s1.705 3.75 3.808 3.75c2.103 0 3.808-1.679 3.808-3.75s-1.705-3.75-3.808-3.75zM25 11.909c-2.636-2.166-5.713-3.409-9-3.409s-6.364 1.243-9 3.409"></path>
</symbol>
<symbol id="icon-eye-32px" viewBox="0 0 32 32">
<path stroke-linejoin="miter" stroke-linecap="round" stroke-miterlimit="4" stroke-width="1" d="M15.654 11.909c-4.779 0-8.654 4.621-8.654 5.795s3.874 5.796 8.654 5.796c4.779 0 8.654-4.621 8.654-5.796s-3.875-5.795-8.654-5.795zM15.654 11.909c-2.103 0-3.808 1.679-3.808 3.75s1.705 3.75 3.808 3.75 3.808-1.679 3.808-3.75c0-2.071-1.705-3.75-3.808-3.75zM25 11.909c-2.636-2.166-5.713-3.409-9-3.409s-6.364 1.243-9 3.409"></path>
</symbol>
<symbol id="icon-eye-close-16px" viewBox="0 0 32 32">
<path stroke-linejoin="miter" stroke-linecap="round" stroke-miterlimit="4" stroke-width="2" d="M19.214 22.65c-1.086 0.504-2.291 0.832-3.56 0.832-4.779 0-8.654-4.655-8.654-5.837 0-0.67 1.245-2.456 3.194-3.878M23.269 19.516c0.662-0.797 1.039-1.502 1.039-1.871 0-1.183-3.874-5.838-8.654-5.838 2.103 0 3.808 1.691 3.808 3.777M15.654 19.362c-2.103 0-3.808-1.691-3.808-3.777M25 11.807c-2.636-2.181-5.713-3.434-9-3.434-1.185 0-2.342 0.163-3.462 0.473M7 11.807c0.244-0.202 0.492-0.396 0.744-0.582M7 7l16.714 16.875"></path>
</symbol>
<symbol id="icon-eye-close-24px" viewBox="0 0 32 32">
<path stroke-linejoin="miter" stroke-linecap="round" stroke-miterlimit="4" stroke-width="1.3333" d="M19.214 22.65c-1.086 0.504-2.291 0.833-3.56 0.833-4.779 0-8.654-4.655-8.654-5.837 0-0.671 1.245-2.457 3.194-3.878M23.269 19.516c0.662-0.797 1.038-1.502 1.038-1.871 0-1.183-3.874-5.838-8.654-5.838 2.103 0 3.808 1.691 3.808 3.777M15.654 19.362c-2.103 0-3.808-1.691-3.808-3.777M25 11.807c-2.636-2.181-5.713-3.434-9-3.434-1.185 0-2.342 0.163-3.462 0.473M7 11.807c0.244-0.202 0.492-0.396 0.744-0.582M7 7l16.714 16.875"></path>
</symbol>
<symbol id="icon-eye-close-32px" viewBox="0 0 32 32">
<path stroke-linejoin="miter" stroke-linecap="round" stroke-miterlimit="4" stroke-width="1" d="M19.214 22.65c-1.086 0.504-2.291 0.832-3.56 0.832-4.779 0-8.654-4.655-8.654-5.838 0-0.67 1.245-2.456 3.194-3.878M23.269 19.516c0.662-0.797 1.038-1.502 1.038-1.871 0-1.183-3.874-5.838-8.654-5.838 2.103 0 3.808 1.691 3.808 3.777M15.654 19.362c-2.103 0-3.808-1.691-3.808-3.777M25 11.807c-2.636-2.181-5.713-3.434-9-3.434-1.185 0-2.342 0.163-3.462 0.473M7 11.807c0.244-0.202 0.492-0.396 0.744-0.582M7 7l16.714 16.875"></path>
</symbol>
<symbol id="icon-add-to-favorite-16px" viewBox="0 0 32 32">
<path stroke-linejoin="round" stroke-linecap="round" stroke-miterlimit="4" stroke-width="2" d="M15.996 5c1.996 0 3.797 0.228 5.090 0.455 0.992 0.174 1.748 0.843 1.992 1.756 0.46 1.721 0.993 4.643 0.914 8.77-0.088 4.571-0.836 7.682-1.455 9.5-0.070 0.204-0.194 0.281-0.33 0.303-0.157 0.025-0.386-0.024-0.588-0.23-0.8-0.821-1.8-1.798-2.742-2.576-0.47-0.388-0.948-0.746-1.395-1.012-0.406-0.241-0.942-0.504-1.486-0.504-0.531 0-1.085 0.253-1.514 0.488-0.476 0.26-0.999 0.614-1.523 1-1.052 0.775-2.192 1.751-3.111 2.57-0.222 0.198-0.462 0.228-0.627 0.185-0.147-0.038-0.28-0.142-0.332-0.373-0.421-1.866-0.889-4.928-0.889-9.332 0-4.325 0.506-7.192 0.936-8.846 0.228-0.876 0.953-1.518 1.918-1.689 1.296-0.23 3.119-0.465 5.143-0.465z"></path>
</symbol>
<symbol id="icon-add-to-favorite-24px" viewBox="0 0 32 32">
<path stroke-linejoin="round" stroke-linecap="round" stroke-miterlimit="4" stroke-width="1.3333" d="M15.996 4.667c2.021 0 3.842 0.232 5.148 0.461 1.109 0.195 1.975 0.948 2.255 1.996 0.467 1.75 1.006 4.704 0.926 8.863-0.088 4.606-0.843 7.751-1.473 9.602-0.11 0.324-0.339 0.485-0.594 0.525-0.269 0.042-0.605-0.048-0.879-0.328-0.797-0.818-1.788-1.785-2.716-2.552-0.463-0.382-0.926-0.727-1.351-0.98-0.399-0.237-0.868-0.458-1.316-0.458-0.44 0-0.927 0.215-1.353 0.448-0.457 0.25-0.967 0.593-1.486 0.975-1.039 0.766-2.172 1.734-3.089 2.551-0.303 0.27-0.657 0.331-0.934 0.259-0.264-0.069-0.493-0.266-0.573-0.621-0.427-1.891-0.896-4.978-0.896-9.406 0-4.351 0.509-7.247 0.947-8.93 0.264-1.014 1.1-1.742 2.181-1.934 1.31-0.232 3.153-0.47 5.202-0.47z"></path>
</symbol>
<symbol id="icon-add-to-favorite-32px" viewBox="0 0 32 32">
<path stroke-linejoin="round" stroke-linecap="round" stroke-miterlimit="4" stroke-width="1" d="M15.996 4.5c2.033 0 3.864 0.233 5.177 0.463 1.168 0.205 2.090 1.002 2.388 2.118 0.471 1.764 1.012 4.734 0.932 8.909-0.089 4.623-0.845 7.785-1.48 9.652-0.131 0.385-0.413 0.586-0.727 0.636-0.325 0.051-0.714-0.060-1.023-0.377-0.795-0.816-1.781-1.778-2.702-2.539-0.46-0.38-0.916-0.72-1.331-0.967-0.395-0.235-0.831-0.433-1.231-0.434-0.394 0-0.849 0.195-1.273 0.427-0.448 0.245-0.95 0.583-1.466 0.963-1.033 0.762-2.161 1.725-3.076 2.541-0.343 0.306-0.754 0.382-1.087 0.296-0.324-0.084-0.599-0.328-0.693-0.746-0.429-1.904-0.9-5.003-0.9-9.442 0-4.364 0.511-7.273 0.952-8.971 0.281-1.083 1.174-1.855 2.313-2.057 1.316-0.233 3.17-0.473 5.23-0.473z"></path>
</symbol>
<symbol id="icon-burger-16px" viewBox="0 0 32 32">
<path stroke-linejoin="miter" stroke-linecap="round" stroke-miterlimit="4" stroke-width="2" d="M7.5 9.5h17M7.5 21.5h17M7.5 15.5h17"></path>
</symbol>
<symbol id="icon-burger-24px" viewBox="0 0 32 32">
<path stroke-linejoin="miter" stroke-linecap="round" stroke-miterlimit="4" stroke-width="1.3333" d="M7.5 9.5h17M7.5 21.5h17M7.5 15.5h17"></path>
</symbol>
<symbol id="icon-burger-32px" viewBox="0 0 32 32">
<path stroke-linejoin="miter" stroke-linecap="round" stroke-miterlimit="4" stroke-width="1" d="M7.5 9.5h17M7.5 21.5h17M7.5 15.5h17"></path>
</symbol>
<symbol id="icon-delete-16px" viewBox="0 0 32 32">
<path stroke-linejoin="round" stroke-linecap="round" stroke-miterlimit="4" stroke-width="2" d="M16 21.846v-8.769M6.5 9.423h2.192M25.5 9.423h-2.192M19.654 9.423h-7.308M19.654 9.423v-1.462c0-0.807-0.654-1.462-1.462-1.462h-4.385c-0.807 0-1.462 0.654-1.462 1.462v1.462M19.654 9.423h3.654M12.346 9.423h-3.654M23.308 9.423v13.154c0 1.614-1.309 2.923-2.923 2.923h-8.769c-1.614 0-2.923-1.309-2.923-2.923v-13.154"></path>
</symbol>
<symbol id="icon-delete-24px" viewBox="0 0 32 32">
<path stroke-linejoin="round" stroke-linecap="round" stroke-miterlimit="4" stroke-width="1.3333" d="M16 21.846v-8.769M6.5 9.423h2.192M25.5 9.423h-2.192M19.654 9.423h-7.308M19.654 9.423v-1.462c0-0.807-0.654-1.462-1.462-1.462h-4.385c-0.807 0-1.462 0.654-1.462 1.462v1.462M19.654 9.423h3.654M12.346 9.423h-3.654M23.308 9.423v13.154c0 1.614-1.309 2.923-2.923 2.923h-8.769c-1.614 0-2.923-1.309-2.923-2.923v-13.154"></path>
</symbol>
<symbol id="icon-delete-32px" viewBox="0 0 32 32">
<path stroke-linejoin="round" stroke-linecap="round" stroke-miterlimit="4" stroke-width="1" d="M16 21.846v-8.769M6.5 9.423h2.192M25.5 9.423h-2.192M19.654 9.423h-7.308M19.654 9.423v-1.462c0-0.807-0.654-1.462-1.462-1.462h-4.385c-0.807 0-1.462 0.654-1.462 1.462v1.462M19.654 9.423h3.654M12.346 9.423h-3.654M23.308 9.423v13.154c0 1.614-1.309 2.923-2.923 2.923h-8.769c-1.614 0-2.923-1.309-2.923-2.923v-13.154"></path>
</symbol>
<symbol id="icon-logout-16px" viewBox="0 0 32 32">
<path stroke-linejoin="round" stroke-linecap="round" stroke-miterlimit="4" stroke-width="2" d="M13.077 6.5h-3.654c-1.614 0-2.923 1.309-2.923 2.923v13.154c0 1.614 1.309 2.923 2.923 2.923h3.654M11.5 16h14.615M26.115 16l-4.385 4.385M26.115 16l-4.385-4.385"></path>
</symbol>
<symbol id="icon-logout-24px" viewBox="0 0 32 32">
<path stroke-linejoin="round" stroke-linecap="round" stroke-miterlimit="4" stroke-width="1.3333" d="M13.077 6.5h-3.654c-1.614 0-2.923 1.309-2.923 2.923v13.154c0 1.614 1.309 2.923 2.923 2.923h3.654M11.5 16h14.615M26.115 16l-4.385 4.385M26.115 16l-4.385-4.385"></path>
</symbol>
<symbol id="icon-logout-32px" viewBox="0 0 32 32">
<path stroke-linejoin="round" stroke-linecap="round" stroke-miterlimit="4" stroke-width="1" d="M13.077 6.5h-3.654c-1.614 0-2.923 1.309-2.923 2.923v13.154c0 1.614 1.309 2.923 2.923 2.923h3.654M11.5 16h14.615M26.115 16l-4.385 4.385M26.115 16l-4.385-4.385"></path>
</symbol>
<symbol id="icon-logo" viewBox="0 0 115 32">
<path fill="#fff" style="fill: var(--color1, #fff)" d="M17.902 9.471c0.224-0.023 0.455 0 0.673 0.055 0.645 0.161 1.082 0.557 1.414 1.111 0.264-0.028 0.531-0.012 0.79 0.048 0.552 0.137 1.028 0.481 1.327 0.958 0.147 0.235 0.245 0.498 0.288 0.771s0.029 0.552-0.041 0.82c-0.185 0.698-0.627 1.061-1.231 1.409 0.017 0.428 0.010 0.859 0.011 1.287 0 0.271 0.018 0.553-0.008 0.822-0.011 0.114-0.034 0.207-0.093 0.306-0.087 0.062-0.175 0.081-0.281 0.093-0.276 0.033-0.576 0.011-0.854 0.010l-1.641-0.006c-0.584 0.043-1.202 0.002-1.789 0.003-0.391 0-0.831 0.046-1.217 0.003-0.138-0.015-0.197-0.106-0.272-0.207-0.049-0.769-0.007-1.563-0.007-2.335-0.321-0.164-0.595-0.366-0.819-0.649-0.167-0.211-0.29-0.453-0.361-0.712s-0.090-0.529-0.055-0.794c0.084-0.566 0.39-1.076 0.853-1.42 0.458-0.338 0.999-0.476 1.563-0.398 0.079-0.136 0.157-0.273 0.254-0.397 0.376-0.479 0.899-0.702 1.495-0.777zM17.933 10.416c-0.366 0.072-0.682 0.203-0.903 0.52-0.124 0.177-0.237 0.687-0.391 0.765-0.204 0.024-0.418-0.070-0.615-0.113-0.397-0.086-0.846 0.071-1.092 0.39-0.202 0.262-0.298 0.624-0.243 0.95 0.049 0.295 0.229 0.542 0.476 0.71 0.269 0.184 0.569 0.221 0.755 0.51 0.034 0.67 0.009 1.351 0.010 2.023 0.782-0.006 1.564-0.008 2.346-0.005l1.91-0.004c-0-0.34-0.074-2.033 0.085-2.199 0.075-0.078 0.246-0.126 0.347-0.165 0.455-0.177 0.788-0.484 0.829-0.988 0.028-0.333-0.081-0.633-0.305-0.881-0.204-0.226-0.47-0.346-0.777-0.364-0.269-0.016-0.823 0.238-0.993 0.049-0.082-0.092-0.115-0.25-0.157-0.366-0.172-0.476-0.532-0.753-1.039-0.818-0.081-0.011-0.161-0.015-0.243-0.013z"></path>
<path fill="#fff" style="fill: var(--color1, #fff)" d="M26.923 6.52c0.169-0.012 0.373-0.010 0.506 0.112 0.125 0.114 0.13 0.296 0.089 0.447-0.101 0.367-0.423 0.807-0.617 1.141-0.31 0.534-0.6 1.084-0.901 1.624-0.186 0.335-0.412 0.677-0.561 1.026-0.047 0.111-0.083 0.228-0.078 0.35 0.005 0.106 0.042 0.186 0.124 0.255 0.115 0.098 0.268 0.175 0.425 0.154 0.104-0.014 0.188-0.068 0.252-0.149 0.221-0.275 0.352-0.657 0.514-0.968l1.113-2.149c0.132-0.257 0.248-0.572 0.433-0.794 0.098-0.117 0.189-0.173 0.345-0.186 0.123-0.010 0.243 0.021 0.338 0.101 0.113 0.095 0.165 0.248 0.143 0.391-0.043 0.276-0.289 0.611-0.42 0.863l-1.011 1.982c-0.18 0.357-0.392 0.723-0.537 1.095-0.034 0.087-0.067 0.184-0.055 0.278 0.015 0.11 0.096 0.207 0.186 0.269 0.1 0.070 0.235 0.116 0.358 0.089 0.141-0.031 0.24-0.133 0.319-0.246 0.18-0.257 0.299-0.595 0.431-0.88l0.863-1.829c0.163-0.347 0.311-0.755 0.527-1.070 0.078-0.113 0.162-0.204 0.305-0.226 0.145-0.022 0.292 0.039 0.402 0.13 0.091 0.076 0.16 0.165 0.164 0.286 0.011 0.311-0.56 1.39-0.715 1.737l-0.611 1.367c-0.3 0.674-0.557 1.349-1.063 1.907-0.499 0.549-1.066 0.782-1.75 1.027-0.144 0.052-0.366 0.103-0.488 0.19-0.242 0.173-0.411 0.493-0.553 0.745-0.109 0.194-0.248 0.405-0.317 0.617-0.101 0.312-0.034 1.267-0.034 1.644l-0.001 4.867 0.003 1.488c0 0.291 0.018 0.596-0.014 0.886-0.012 0.106-0.054 0.224-0.133 0.3-0.237 0.23-1.11 0.149-1.446 0.147l-2.285-0.003c0.132-0.349 0.294-0.693 0.466-1.025 0.297-0.031 0.601-0.017 0.9-0.018l1.474 0.001 0-6.36c-0.191 0.452-0.434 0.895-0.654 1.334-0.391 0.779-0.778 1.56-1.16 2.343-0.462 0.952-0.931 1.901-1.407 2.846-0.199 0.395-0.376 0.811-0.603 1.192-0.092 0.154-0.203 0.294-0.357 0.393-0.209 0.133-0.462 0.181-0.706 0.133-0.119-0.024-0.231-0.073-0.329-0.142s-0.182-0.158-0.244-0.26c-0.132-0.213-0.166-0.451-0.094-0.69 0.117-0.391 0.365-0.767 0.56-1.125l0.929-1.701c1.125-2.061 2.26-4.12 3.349-6.2 0.257-0.49 0.838-1.419 0.978-1.881 0.152-0.503-0.168-1.104-0.261-1.599-0.084-0.445-0.074-0.873 0.041-1.311 0.048-0.187 0.116-0.369 0.203-0.543 0.149-0.293 0.328-0.573 0.494-0.857l0.858-1.482 0.693-1.201c0.137-0.237 0.267-0.492 0.432-0.71 0.052-0.068 0.116-0.11 0.189-0.153z"></path>
<path fill="#fff" style="fill: var(--color1, #fff)" d="M11.341 5.63c0.795-0.042 1.607-0.006 2.404-0.005l8.71-0c0.672-0 1.37-0.038 2.040 0.004 0.137 0.009 0.293 0.047 0.396 0.141 0.091 0.083 0.13 0.229 0.147 0.345 0.035 0.236 0.014 0.494 0.014 0.732l-0.006 1.354c-0.332 0.533-0.695 1.051-1.043 1.575 0.031-0.351 0.009-0.716 0.009-1.069l-0-1.984c-3.973 0.003-7.951 0.040-11.923-0.002-0.040 1.625-0.003 3.261-0.003 4.887l0.002 8.989 7.013-0.005c0.307-0 0.634-0.022 0.938 0.016-0.113 0.35-0.328 0.701-0.495 1.031l-7.181-0.012c-0.379 0.001-0.773-0.017-1.148 0.038-0.323 0.046-0.627 0.177-0.88 0.38-0.309 0.247-0.534 0.604-0.566 1-0.028 0.349 0.11 0.686 0.337 0.949 0.213 0.247 0.54 0.434 0.863 0.495 0.472 0.089 1.173 0.026 1.67 0.027l3.377 0.003c0.628 0 1.267-0.026 1.893 0.020-0.111 0.325-0.213 0.677-0.276 1.013-0.566-0.050-1.169-0.009-1.741-0.009l-3.382-0.001c-0.589 0.001-1.258 0.069-1.833-0.054-0.403-0.086-0.782-0.296-1.097-0.555-0.509-0.417-0.829-1.061-0.881-1.708-0.029-0.362-0.008-0.737-0.006-1.1l0.001-1.762-0-6.094-0.001-4.225c-0-0.543-0.051-1.499 0.023-2.012 0.069-0.509 0.288-0.987 0.628-1.375 0.502-0.589 1.22-0.957 1.998-1.024zM11.027 6.766c-0.559 0.227-0.97 0.511-1.208 1.079-0.082 0.196-0.104 0.437-0.111 0.648-0.035 1.034-0.003 2.081-0.002 3.116l0.001 5.978 0 2.65c0 0.3-0.056 0.71 0.010 0.996l0.024 0.008 0.037-0.024c0.422-0.312 0.779-0.482 1.297-0.59-0.040-1.477-0.005-2.966-0.003-4.444 0.002-1.662-0.027-3.326-0.008-4.987 0.011-1.087 0.013-2.174 0.007-3.261-0-0.262 0.043-0.944-0.008-1.159l-0.036-0.010z"></path>
<path fill="#fff" style="fill: var(--color1, #fff)" d="M36.991 20.168v-7.394h-2.907v-1.379h7.444v1.379h-2.907v7.394h-1.629zM45.992 20.168v-1.353l-0.088-0.288v-2.368c0-0.459-0.138-0.815-0.414-1.065-0.276-0.259-0.693-0.388-1.253-0.388-0.376 0-0.748 0.059-1.115 0.175-0.359 0.117-0.664 0.28-0.915 0.489l-0.614-1.14c0.359-0.276 0.785-0.48 1.278-0.614 0.501-0.142 1.019-0.213 1.554-0.213 0.969 0 1.717 0.234 2.243 0.702 0.535 0.459 0.802 1.174 0.802 2.143v3.922h-1.479zM43.887 20.256c-0.501 0-0.94-0.084-1.316-0.251-0.376-0.175-0.668-0.414-0.877-0.714-0.2-0.309-0.301-0.656-0.301-1.040 0-0.376 0.088-0.714 0.263-1.015 0.184-0.301 0.48-0.539 0.89-0.714s0.952-0.263 1.629-0.263h1.942v1.040h-1.83c-0.535 0-0.894 0.088-1.078 0.263-0.184 0.167-0.276 0.376-0.276 0.627 0 0.284 0.113 0.51 0.338 0.677s0.539 0.251 0.94 0.251c0.384 0 0.727-0.088 1.028-0.263 0.309-0.175 0.53-0.434 0.664-0.777l0.263 0.94c-0.15 0.393-0.422 0.698-0.815 0.915-0.384 0.217-0.873 0.326-1.466 0.326zM51.173 20.256c-0.56 0-1.099-0.071-1.617-0.213-0.51-0.15-0.915-0.33-1.215-0.539l0.602-1.19c0.301 0.192 0.66 0.351 1.078 0.476s0.835 0.188 1.253 0.188c0.493 0 0.848-0.067 1.065-0.201 0.226-0.134 0.338-0.313 0.338-0.539 0-0.184-0.075-0.322-0.226-0.413-0.15-0.1-0.347-0.175-0.589-0.226s-0.514-0.096-0.815-0.138c-0.292-0.042-0.589-0.096-0.89-0.163-0.292-0.075-0.56-0.18-0.802-0.313-0.242-0.142-0.439-0.33-0.589-0.564s-0.226-0.543-0.226-0.927c0-0.426 0.121-0.794 0.363-1.103 0.242-0.318 0.581-0.56 1.015-0.727 0.443-0.175 0.965-0.263 1.566-0.263 0.451 0 0.906 0.050 1.366 0.15s0.84 0.242 1.14 0.426l-0.602 1.19c-0.318-0.192-0.639-0.322-0.965-0.388-0.317-0.075-0.635-0.113-0.952-0.113-0.476 0-0.831 0.071-1.065 0.213-0.226 0.142-0.338 0.322-0.338 0.539 0 0.2 0.075 0.351 0.226 0.451s0.347 0.18 0.589 0.238c0.242 0.058 0.51 0.109 0.802 0.15 0.301 0.033 0.597 0.088 0.89 0.163s0.56 0.18 0.802 0.313c0.251 0.125 0.451 0.305 0.602 0.539s0.226 0.539 0.226 0.915c0 0.418-0.125 0.781-0.376 1.090-0.242 0.309-0.589 0.551-1.040 0.727-0.451 0.167-0.99 0.251-1.617 0.251zM57.697 20.256c-0.735 0-1.303-0.188-1.704-0.564-0.401-0.384-0.602-0.948-0.602-1.692v-6.003h1.566v5.965c0 0.317 0.079 0.564 0.238 0.739 0.167 0.175 0.397 0.263 0.689 0.263 0.351 0 0.643-0.092 0.877-0.276l0.439 1.115c-0.184 0.15-0.409 0.263-0.677 0.338s-0.543 0.113-0.827 0.113zM54.289 14.779v-1.253h4.461v1.253h-4.461zM63.039 20.256c-0.743 0-1.395-0.146-1.955-0.439-0.551-0.301-0.982-0.71-1.291-1.228-0.301-0.518-0.451-1.107-0.451-1.767 0-0.668 0.146-1.257 0.439-1.767 0.301-0.518 0.71-0.923 1.228-1.216 0.526-0.292 1.124-0.439 1.792-0.439 0.652 0 1.232 0.142 1.742 0.426s0.911 0.685 1.203 1.203c0.292 0.518 0.439 1.128 0.439 1.83 0 0.067-0.004 0.142-0.013 0.226 0 0.084-0.004 0.163-0.013 0.238h-5.577v-1.040h4.749l-0.614 0.326c0.008-0.384-0.071-0.723-0.238-1.015s-0.397-0.522-0.689-0.689c-0.284-0.167-0.614-0.251-0.99-0.251-0.384 0-0.723 0.084-1.015 0.251-0.284 0.167-0.51 0.401-0.677 0.702-0.159 0.292-0.238 0.639-0.238 1.040v0.251c0 0.401 0.092 0.756 0.276 1.065s0.443 0.547 0.777 0.714c0.334 0.167 0.718 0.251 1.153 0.251 0.376 0 0.714-0.058 1.015-0.175s0.568-0.301 0.802-0.551l0.84 0.965c-0.301 0.351-0.681 0.622-1.14 0.815-0.451 0.184-0.969 0.276-1.554 0.276zM70.321 20.256c-0.685 0-1.295-0.146-1.83-0.439-0.535-0.301-0.957-0.71-1.266-1.228s-0.464-1.107-0.464-1.767c0-0.668 0.155-1.257 0.464-1.767 0.309-0.518 0.731-0.923 1.266-1.216s1.145-0.439 1.83-0.439c0.693 0 1.307 0.146 1.842 0.439 0.543 0.292 0.965 0.693 1.265 1.203 0.309 0.51 0.464 1.103 0.464 1.779 0 0.66-0.155 1.249-0.464 1.767-0.301 0.518-0.723 0.927-1.265 1.228-0.535 0.292-1.149 0.439-1.842 0.439zM70.321 18.915c0.384 0 0.726-0.084 1.027-0.251s0.534-0.409 0.701-0.727c0.176-0.317 0.264-0.689 0.264-1.115 0-0.434-0.088-0.806-0.264-1.115-0.167-0.317-0.401-0.56-0.701-0.727s-0.639-0.251-1.015-0.251c-0.385 0-0.727 0.084-1.028 0.251-0.292 0.167-0.526 0.409-0.702 0.727-0.175 0.309-0.263 0.681-0.263 1.115 0 0.426 0.088 0.798 0.263 1.115s0.409 0.56 0.702 0.727c0.301 0.167 0.639 0.251 1.015 0.251zM75.014 20.168v-6.692h1.491v1.842l-0.175-0.539c0.2-0.451 0.513-0.794 0.94-1.028 0.434-0.234 0.973-0.351 1.617-0.351v1.491c-0.067-0.017-0.13-0.025-0.189-0.025-0.058-0.008-0.117-0.013-0.175-0.013-0.593 0-1.065 0.175-1.416 0.526-0.351 0.342-0.527 0.856-0.527 1.541v3.246h-1.567zM83.485 20.168v-1.353l-0.088-0.288v-2.368c0-0.459-0.138-0.815-0.414-1.065-0.275-0.259-0.693-0.388-1.253-0.388-0.376 0-0.748 0.059-1.115 0.175-0.36 0.117-0.664 0.28-0.915 0.489l-0.614-1.14c0.359-0.276 0.785-0.48 1.278-0.614 0.502-0.142 1.020-0.213 1.554-0.213 0.969 0 1.717 0.234 2.243 0.702 0.534 0.459 0.802 1.174 0.802 2.143v3.922h-1.479zM81.379 20.256c-0.502 0-0.94-0.084-1.316-0.251-0.376-0.175-0.669-0.414-0.877-0.714-0.2-0.309-0.301-0.656-0.301-1.040 0-0.376 0.088-0.714 0.263-1.015 0.184-0.301 0.481-0.539 0.89-0.714s0.952-0.263 1.629-0.263h1.942v1.040h-1.83c-0.535 0-0.894 0.088-1.078 0.263-0.184 0.167-0.275 0.376-0.275 0.627 0 0.284 0.113 0.51 0.338 0.677s0.538 0.251 0.94 0.251c0.384 0 0.727-0.088 1.027-0.263 0.309-0.175 0.531-0.434 0.664-0.777l0.263 0.94c-0.15 0.393-0.422 0.698-0.815 0.915-0.384 0.217-0.873 0.326-1.466 0.326zM95.043 13.401c0.535 0 1.007 0.104 1.416 0.313 0.417 0.209 0.744 0.53 0.977 0.965 0.234 0.426 0.351 0.977 0.351 1.654v3.835h-1.566v-3.634c0-0.593-0.129-1.036-0.389-1.328s-0.63-0.439-1.115-0.439c-0.342 0-0.648 0.075-0.915 0.226-0.259 0.15-0.464 0.372-0.614 0.664-0.142 0.292-0.213 0.664-0.213 1.115v3.396h-1.567v-3.634c0-0.593-0.129-1.036-0.388-1.328s-0.631-0.439-1.115-0.439c-0.343 0-0.648 0.075-0.915 0.226-0.259 0.15-0.464 0.372-0.614 0.664-0.142 0.292-0.213 0.664-0.213 1.115v3.396h-1.567v-6.692h1.491v1.779l-0.264-0.526c0.226-0.434 0.552-0.764 0.977-0.99 0.435-0.226 0.927-0.338 1.479-0.338 0.627 0 1.169 0.155 1.629 0.464 0.467 0.309 0.777 0.777 0.927 1.403l-0.614-0.213c0.217-0.501 0.577-0.902 1.078-1.203s1.082-0.451 1.742-0.451zM103.537 20.168v-1.353l-0.088-0.288v-2.368c0-0.459-0.138-0.815-0.414-1.065-0.275-0.259-0.693-0.388-1.253-0.388-0.376 0-0.748 0.059-1.115 0.175-0.36 0.117-0.664 0.28-0.915 0.489l-0.614-1.14c0.36-0.276 0.785-0.48 1.279-0.614 0.501-0.142 1.019-0.213 1.553-0.213 0.969 0 1.717 0.234 2.243 0.702 0.534 0.459 0.802 1.174 0.802 2.143v3.922h-1.479zM101.432 20.256c-0.502 0-0.94-0.084-1.316-0.251-0.376-0.175-0.669-0.414-0.877-0.714-0.2-0.309-0.301-0.656-0.301-1.040 0-0.376 0.088-0.714 0.263-1.015 0.184-0.301 0.481-0.539 0.89-0.714s0.952-0.263 1.629-0.263h1.942v1.040h-1.83c-0.534 0-0.894 0.088-1.078 0.263-0.184 0.167-0.275 0.376-0.275 0.627 0 0.284 0.113 0.51 0.338 0.677s0.539 0.251 0.94 0.251c0.384 0 0.727-0.088 1.027-0.263 0.31-0.175 0.531-0.434 0.664-0.777l0.263 0.94c-0.15 0.393-0.422 0.698-0.815 0.915-0.384 0.217-0.873 0.326-1.466 0.326z"></path>
</symbol>
<symbol id="icon-filter-16px" viewBox="0 0 32 32">
<path stroke-linejoin="miter" stroke-linecap="butt" stroke-miterlimit="4" stroke-width="2" d="M8.908 7.5l14.184 0c1.054 0 1.908 0.854 1.908 1.908 0 0.487-0.186 0.956-0.521 1.31l-6.402 6.782v4.695c0 1.531-1.599 2.535-2.978 1.871-0.719-0.346-1.176-1.073-1.176-1.871v-4.695l-6.402-6.782c-0.334-0.354-0.521-0.823-0.521-1.31 0-1.054 0.854-1.908 1.908-1.908z"></path>
</symbol>
<symbol id="icon-filter-24px" viewBox="0 0 32 32">
<path stroke-linejoin="miter" stroke-linecap="butt" stroke-miterlimit="4" stroke-width="1.3333" d="M8.908 7.5h14.183c1.054 0 1.908 0.854 1.908 1.908 0 0.487-0.186 0.956-0.521 1.31l-6.402 6.782v4.695c0 1.53-1.599 2.535-2.978 1.871-0.719-0.346-1.176-1.073-1.176-1.871v-4.695l-6.402-6.782c-0.334-0.354-0.521-0.823-0.521-1.31 0-1.054 0.854-1.908 1.908-1.908z"></path>
</symbol>
<symbol id="icon-filter-32px" viewBox="0 0 32 32">
<path stroke-linejoin="miter" stroke-linecap="butt" stroke-miterlimit="4" stroke-width="1" d="M8.908 7.5h14.184c1.054 0 1.908 0.854 1.908 1.908 0 0.487-0.186 0.956-0.521 1.31l-6.402 6.782v4.817c0 1.474-1.54 2.441-2.868 1.802l-0.154-0.074c-0.692-0.333-1.132-1.034-1.132-1.802v-4.743l-6.402-6.782c-0.334-0.354-0.521-0.823-0.521-1.31 0-1.054 0.854-1.908 1.908-1.908z"></path>
</symbol>
<symbol id="icon-filter-crossed-16px" viewBox="0 0 32 32">
<path stroke-linejoin="miter" stroke-linecap="round" stroke-miterlimit="4" stroke-width="2" d="M7.905 12.147l5.636 5.756v5.027c0 0.631 0.298 1.225 0.804 1.603l0.11 0.082c1.319 0.984 3.196 0.043 3.196-1.603v-1.089M10.738 7l11.787 0.052c1.092 0.005 1.975 0.892 1.975 1.984 0 0.456-0.157 0.898-0.445 1.252l-4.412 5.422M7.5 7.792l15.381 14.253"></path>
</symbol>
<symbol id="icon-filter-crossed-24px" viewBox="0 0 32 32">
<path stroke-linejoin="miter" stroke-linecap="round" stroke-miterlimit="4" stroke-width="1.3333" d="M7.905 12.147l5.636 5.756v5.027c0 0.631 0.298 1.225 0.804 1.603l0.11 0.082c1.319 0.984 3.196 0.043 3.196-1.603v-1.089M10.738 7l11.787 0.052c1.092 0.005 1.975 0.892 1.975 1.984 0 0.456-0.157 0.898-0.445 1.252l-4.412 5.422M7.5 7.792l15.381 14.253"></path>
</symbol>
<symbol id="icon-filter-crossed-32px" viewBox="0 0 32 32">
<path stroke-linejoin="miter" stroke-linecap="round" stroke-miterlimit="4" stroke-width="1" d="M7.905 12.147l5.636 5.756v5.027c0 0.631 0.298 1.225 0.804 1.603l0.11 0.082c1.319 0.984 3.196 0.043 3.196-1.603v-1.089M10.738 7l11.787 0.052c1.092 0.005 1.975 0.892 1.975 1.984 0 0.456-0.157 0.898-0.445 1.252l-4.412 5.422M7.5 7.792l15.381 14.253"></path>
</symbol>
<symbol id="icon-timeclock-16px" viewBox="0 0 32 32">
<path stroke-linejoin="round" stroke-linecap="round" stroke-miterlimit="4" stroke-width="2" d="M16 10.154v6.577l4.385 3.654M25.5 16c0 5.247-4.253 9.5-9.5 9.5s-9.5-4.253-9.5-9.5c0-5.247 4.253-9.5 9.5-9.5s9.5 4.253 9.5 9.5z"></path>
</symbol>
<symbol id="icon-timeclock-24px" viewBox="0 0 32 32">
<path stroke-linejoin="round" stroke-linecap="round" stroke-miterlimit="4" stroke-width="1.3333" d="M16 10.154v6.577l4.385 3.654M25.5 16c0 5.247-4.253 9.5-9.5 9.5s-9.5-4.253-9.5-9.5c0-5.247 4.253-9.5 9.5-9.5s9.5 4.253 9.5 9.5z"></path>
</symbol>
<symbol id="icon-timeclock-32px" viewBox="0 0 32 32">
<path stroke-linejoin="round" stroke-linecap="round" stroke-miterlimit="4" stroke-width="1" d="M16 10.154v6.577l4.385 3.654M25.5 16c0 5.247-4.253 9.5-9.5 9.5s-9.5-4.253-9.5-9.5c0-5.247 4.253-9.5 9.5-9.5s9.5 4.253 9.5 9.5z"></path>
</symbol>
<symbol id="icon-check" viewBox="0 0 48 32">
<path fill="none" stroke="#fff" style="stroke: var(--color1, #fff)" stroke-linejoin="round" stroke-linecap="round" stroke-miterlimit="4" stroke-width="6" d="M6 13.88l13.332 14.12 22.668-24"></path>
</symbol>
<symbol id="icon-photo" viewBox="0 0 32 32">
<path stroke-linejoin="miter" stroke-linecap="butt" stroke-miterlimit="4" stroke-width="1.0002" d="M19.654 17.461c0 2.018-1.636 3.654-3.654 3.654s-3.654-1.636-3.654-3.654v0c0-2.018 1.636-3.654 3.654-3.654s3.654 1.636 3.654 3.654v0z"></path>
<path stroke-linejoin="miter" stroke-linecap="butt" stroke-miterlimit="4" stroke-width="1.0002" d="M6.5 22.5v-8.905c0-1.497 1.213-2.71 2.71-2.71v0c1.055-0 1.969-0.603 2.417-1.483l0.007-0.015 0.614-1.228c0.503-0.991 1.515-1.659 2.683-1.659 0 0 0 0 0 0h2.138c0 0 0 0 0 0 1.168 0 2.18 0.667 2.675 1.641l0.008 0.017 0.614 1.228c0.455 0.895 1.369 1.498 2.423 1.498h0c0 0 0 0 0 0 1.497 0 2.71 1.213 2.71 2.71v8.905c0 1.657-1.343 3-3 3v0h-13c-0 0-0 0-0 0-1.657 0-3-1.343-3-3 0-0 0-0 0-0v0z"></path>
</symbol>
</defs>
</svg>
